<svg version="1.1" id="Layer_1" xmlns:x="ns_extend;" xmlns:i="ns_ai;" xmlns:graph="ns_graphs;" xmlns="http://www.w3.org/2000/svg" xmlns:xlink="http://www.w3.org/1999/xlink" x="0px" y="0px" viewBox="0 0 173.3 50" style="enable-background:new 0 0 173.3 50;" xml:space="preserve">
 <style type="text/css">
  .st0{fill-rule:evenodd;clip-rule:evenodd;fill:#FFFFFF;}
	.st1{fill:#FFFFFF;}
 </style>
 <metadata>
  <sfw xmlns="ns_sfw;">
   <slices>
   </slices>
   <sliceSourceBounds bottomLeftOrigin="true" height="50" width="173.3" x="113.1" y="-225.2">
   </sliceSourceBounds>
  </sfw>
 </metadata>
 <g>
  <path class="st0" d="M12.7,24.2V12.1H25C25,5.5,19.4,0,12.7,0C5.9,0,0.4,5.5,0.4,12.1C0.4,18.7,5.9,24.2,12.7,24.2z M35.2,50V37.9
		h12.3c0-6.6-5.6-12.1-12.3-12.1s-12.3,5.5-12.3,12.1S28.5,50,35.2,50z M35.2,23.8L47.9,0.4H22.5L35.2,23.8z M25.4,26.2L12.7,49.6
		L0,26.2H25.4z">
  </path>
  <path class="st1" d="M71,23.7h-9V0h9c7.1,0,11.5,4.4,11.5,11.8C82.5,19.3,78.1,23.7,71,23.7z M70.6,20c5.1,0,7.4-2.8,7.4-8.1
		c0-5.3-2.3-8.1-7.4-8.1h-4.2V20L70.6,20z">
  </path>
  <path class="st1" d="M92.6,24.2c-5.6,0-9.1-4-9.1-9.3c0-5.3,3.6-9.3,9-9.3c4.5,0,7.2,2.4,8.3,5.9c0.4,1.3,0.6,2.8,0.6,4.3v0.7H87.8
		c0.1,2.2,1.8,4.6,4.8,4.6c2.3,0,3.5-1.3,3.9-2.4h4.5C100,21.7,97.2,24.2,92.6,24.2z M97,13.2c-0.1-2.3-1.7-4.4-4.5-4.4
		c-2.7,0-4.4,2.1-4.7,4.4H97z">
  </path>
  <path class="st1" d="M105.2,6.1l2.4,6.8c0.8,2,1.4,4.4,1.9,6.3h0.1c0.5-1.9,1.1-4.2,1.9-6.3l2.4-6.8h4.5l-6.8,17.6h-4.2l-6.8-17.6
		H105.2z">
  </path>
  <path class="st1" d="M147.5,24.2c-5.6,0-9.1-4-9.1-9.3c0-5.3,3.6-9.3,9-9.3c4.5,0,7.2,2.4,8.3,5.9c0.4,1.3,0.6,2.8,0.6,4.3v0.7
		h-13.5c0.1,2.2,1.8,4.6,4.8,4.6c2.3,0,3.5-1.3,3.9-2.4h4.5C154.9,21.7,152.1,24.2,147.5,24.2z M151.8,13.2
		c-0.1-2.3-1.7-4.4-4.5-4.4c-2.7,0-4.4,2.1-4.7,4.4H151.8z">
  </path>
  <path class="st1" d="M160,6.1l2.4,6.8c0.8,2,1.4,4.4,1.9,6.3h0.1c0.5-1.9,1.1-4.2,1.9-6.3l2.4-6.8h4.5l-6.8,17.6h-4.2l-6.8-17.6
		H160z">
  </path>
  <path class="st1" d="M124.3,14.2v9.5h-4.4V0H130c4.7,0,7.8,2.9,7.8,7.1c0,4.2-3.1,7.1-7.8,7.1H124.3z M133.4,7.1
		c0-2-1.4-3.4-3.4-3.4h-5.7v6.8h5.7C132,10.5,133.4,9.1,133.4,7.1z">
  </path>
  <path class="st1" d="M130.9,14.2l7.4,9.5h-5.2l-7.2-9.5">
  </path>
 </g>
</svg>